<?xml version="1.0" encoding="utf-8"?>
<!-- Generator: Adobe Illustrator 21.1.0, SVG Export Plug-In . SVG Version: 6.00 Build 0)  -->
<svg version="1.1" id="Layer_1" xmlns="http://www.w3.org/2000/svg" xmlns:xlink="http://www.w3.org/1999/xlink" x="0px" y="0px"
	 viewBox="0 0 230 40" style="enable-background:new 0 0 230 40;" xml:space="preserve">
<style type="text/css">
	.st0{fill:#414141;}
	.st1{clip-path:url(#SVGID_2_);fill:#414141;}
	.st2{clip-path:url(#SVGID_4_);fill:#414141;}
</style>
<g>
	<polygon class="st0" points="4.3,2.7 10.5,2.7 10.5,37.7 4.3,37.7 	"/>
	<polygon class="st0" points="19.8,2.7 26.4,2.7 37,19.3 47.7,2.7 54.2,2.7 54.2,37.7 48.1,37.7 48.1,12.6 37,29.1 36.8,29.1 
		25.9,12.7 25.9,37.7 19.8,37.7 	"/>
	<path class="st0" d="M76.5,20.9c4.6,0,7.5-2.6,7.5-6.2v-0.1c0-4.1-2.9-6.2-7.5-6.2h-7.1V21h7.1V20.9z M63.2,2.7H77
		c8.2,0,13.3,4.6,13.3,11.7v0.1c0,7.8-6.3,11.9-14,11.9h-6.9v11.2h-6.1V2.7H63.2z"/>
	<polygon class="st0" points="138.7,8.4 127.6,8.4 127.6,2.7 155.9,2.7 155.9,8.4 144.9,8.4 144.9,37.7 138.7,37.7 	"/>
	<g>
		<g>
			<defs>
				<rect id="SVGID_1_" x="4.3" y="2.2" width="220.6" height="36"/>
			</defs>
			<clipPath id="SVGID_2_">
				<use xlink:href="#SVGID_1_"  style="overflow:visible;"/>
			</clipPath>
			<path class="st1" d="M161.9,22.9V2.7h6.1v19.9c0,6.5,3.3,9.9,8.8,9.9c5.4,0,8.8-3.2,8.8-9.7V2.7h6.1v19.8
				c0,10.4-5.9,15.7-15,15.7C167.7,38.3,161.9,33,161.9,22.9"/>
		</g>
		<g>
			<defs>
				<rect id="SVGID_3_" x="4.3" y="2.2" width="220.6" height="36"/>
			</defs>
			<clipPath id="SVGID_4_">
				<use xlink:href="#SVGID_3_"  style="overflow:visible;"/>
			</clipPath>
			<path class="st2" d="M197.9,32.6l3.7-4.4c3.3,2.9,6.7,4.5,11,4.5c3.8,0,6.2-1.8,6.2-4.4v-0.1c0-2.5-1.4-3.8-7.9-5.3
				c-7.4-1.8-11.6-4-11.6-10.4v-0.1c0-6,5-10.1,11.9-10.1c5.1,0,9.1,1.5,12.7,4.4l-3.3,4.6c-3.1-2.3-6.3-3.6-9.5-3.6
				c-3.6,0-5.7,1.8-5.7,4.1v0.1c0,2.7,1.6,3.9,8.3,5.5c7.4,1.8,11.2,4.4,11.2,10.2v0.1c0,6.5-5.1,10.4-12.5,10.4
				C207.2,38.2,202.1,36.4,197.9,32.6"/>
		</g>
	</g>
	<path class="st0" d="M122.8,5.5c0,1.5-1.4,2.7-3.2,2.7H99.8c-1.8,0-3.2-1.2-3.2-2.7s1.4-2.7,3.2-2.7h19.7
		C121.3,2.7,122.8,4,122.8,5.5"/>
	<path class="st0" d="M122.8,35c0,1.5-1.4,2.7-3.2,2.7H99.8c-1.8,0-3.2-1.2-3.2-2.7s1.4-2.7,3.2-2.7h19.7
		C121.3,32.2,122.8,33.5,122.8,35"/>
	<path class="st0" d="M122.8,20.2c0,1.5-1.4,2.7-3.2,2.7H99.8c-1.8,0-3.2-1.2-3.2-2.7s1.4-2.7,3.2-2.7h19.7
		C121.3,17.5,122.8,18.7,122.8,20.2"/>
</g>
</svg>
